<svg xmlns="http://www.w3.org/2000/svg" viewBox="0 0 1600 900" preserveAspectRatio="xMidYMid slice">
  <defs>
    <linearGradient id="sand" x1="0" y1="0" x2="1" y2="1">
      <stop offset="0" stop-color="#ead8b7"/>
      <stop offset="0.52" stop-color="#dfc39a"/>
      <stop offset="1" stop-color="#d2ab73"/>
    </linearGradient>
    <filter id="grain" x="-10%" y="-10%" width="120%" height="120%">
      <feTurbulence type="fractalNoise" baseFrequency="0.72" numOctaves="2" seed="17"/>
      <feColorMatrix type="saturate" values="0"/>
      <feComponentTransfer>
        <feFuncA type="table" tableValues="0 0.08"/>
      </feComponentTransfer>
    </filter>
    <filter id="soft" x="-20%" y="-20%" width="140%" height="140%">
      <feGaussianBlur stdDeviation="0.65"/>
    </filter>
    <g id="rosette-a" fill="none" stroke="#755337" stroke-linecap="round" stroke-linejoin="round">
      <path d="M-39-7C-33-25-13-33 4-28" stroke-width="8" opacity=".42"/>
      <path d="M10-26C26-20 34-9 30 4" stroke-width="8" opacity=".42"/>
      <path d="M23 14C10 28-8 30-23 20" stroke-width="8" opacity=".42"/>
      <path d="M-31 15C-38 8-41 0-38-8" stroke-width="8" opacity=".42"/>
      <path d="M-17-5C-11-16 3-18 12-11" stroke-width="5" opacity=".33"/>
      <path d="M14-7C18 1 13 9 4 12" stroke-width="5" opacity=".33"/>
      <ellipse cx="0" cy="2" rx="4.5" ry="3" fill="#6a4a31" stroke="none" opacity=".34"/>
    </g>
    <g id="rosette-b" fill="none" stroke="#805c3c" stroke-linecap="round" stroke-linejoin="round">
      <path d="M-27-18C-14-32 7-30 22-20" stroke-width="7" opacity=".39"/>
      <path d="M26-14C34-2 30 11 20 19" stroke-width="7" opacity=".39"/>
      <path d="M10 27C-5 32-20 27-28 17" stroke-width="7" opacity=".39"/>
      <path d="M-35 6C-39-3-36-11-28-18" stroke-width="7" opacity=".39"/>
      <path d="M-10-8C-3-17 9-16 15-8" stroke-width="4.5" opacity=".3"/>
      <path d="M14 0C10 9 1 13-7 10" stroke-width="4.5" opacity=".3"/>
      <ellipse cx="1" cy="1" rx="3.8" ry="4.6" fill="#6e4d32" stroke="none" opacity=".32"/>
    </g>
    <g id="rosette-c" fill="none" stroke="#67472f" stroke-linecap="round" stroke-linejoin="round">
      <path d="M-23-12C-12-26 10-27 21-14" stroke-width="6" opacity=".36"/>
      <path d="M24-4C26 9 18 19 7 23" stroke-width="6" opacity=".36"/>
      <path d="M-7 25C-19 21-27 12-27 2" stroke-width="6" opacity=".36"/>
      <path d="M-8-5C-2-13 9-11 12-4" stroke-width="4" opacity=".28"/>
      <path d="M10 5C7 11-1 13-7 9" stroke-width="4" opacity=".28"/>
    </g>
    <g id="spot" fill="#704d31" opacity=".34">
      <ellipse cx="0" cy="0" rx="7" ry="4"/>
    </g>
  </defs>
  <rect width="1600" height="900" fill="url(#sand)"/>
  <rect width="1600" height="900" filter="url(#grain)" opacity=".45"/>
  <g filter="url(#soft)">
    <use href="#rosette-a" transform="translate(90 115) rotate(-18) scale(.82)"/>
    <use href="#rosette-b" transform="translate(330 68) rotate(24) scale(.7)"/>
    <use href="#rosette-c" transform="translate(610 130) rotate(-9) scale(1.08)"/>
    <use href="#rosette-a" transform="translate(890 74) rotate(18) scale(.65)"/>
    <use href="#rosette-b" transform="translate(1210 132) rotate(-22) scale(.86)"/>
    <use href="#rosette-c" transform="translate(1490 65) rotate(14) scale(.72)"/>
    <use href="#rosette-b" transform="translate(188 350) rotate(19) scale(1.12)"/>
    <use href="#rosette-c" transform="translate(470 294) rotate(-28) scale(.74)"/>
    <use href="#rosette-a" transform="translate(760 375) rotate(9) scale(.94)"/>
    <use href="#rosette-b" transform="translate(1085 306) rotate(-12) scale(.72)"/>
    <use href="#rosette-c" transform="translate(1370 382) rotate(26) scale(1.06)"/>
    <use href="#rosette-a" transform="translate(1570 292) rotate(-8) scale(.64)"/>
    <use href="#rosette-c" transform="translate(45 615) rotate(26) scale(.78)"/>
    <use href="#rosette-a" transform="translate(300 560) rotate(-14) scale(.92)"/>
    <use href="#rosette-b" transform="translate(570 700) rotate(18) scale(.72)"/>
    <use href="#rosette-c" transform="translate(860 590) rotate(-18) scale(1.12)"/>
    <use href="#rosette-a" transform="translate(1140 742) rotate(8) scale(.82)"/>
    <use href="#rosette-b" transform="translate(1430 600) rotate(-20) scale(.98)"/>
    <use href="#rosette-c" transform="translate(1540 830) rotate(17) scale(.64)"/>
    <use href="#rosette-a" transform="translate(103 845) rotate(-8) scale(.62)"/>
  </g>
  <g>
    <use href="#spot" transform="translate(240 190) rotate(16) scale(.7)"/>
    <use href="#spot" transform="translate(520 190) rotate(-24) scale(.5)"/>
    <use href="#spot" transform="translate(1010 180) rotate(21) scale(.75)"/>
    <use href="#spot" transform="translate(1320 220) rotate(-12) scale(.56)"/>
    <use href="#spot" transform="translate(370 450) rotate(-20) scale(.62)"/>
    <use href="#spot" transform="translate(655 470) rotate(12) scale(.5)"/>
    <use href="#spot" transform="translate(990 470) rotate(-8) scale(.72)"/>
    <use href="#spot" transform="translate(1490 480) rotate(15) scale(.5)"/>
    <use href="#spot" transform="translate(145 735) rotate(21) scale(.58)"/>
    <use href="#spot" transform="translate(450 805) rotate(-17) scale(.72)"/>
    <use href="#spot" transform="translate(760 790) rotate(12) scale(.52)"/>
    <use href="#spot" transform="translate(1290 820) rotate(-22) scale(.68)"/>
  </g>
</svg>
